<?xml version="1.0" encoding="utf-8"?>
<!-- Generator: Adobe Illustrator 28.1.0, SVG Export Plug-In . SVG Version: 6.00 Build 0)  -->
<svg version="1.0" id="katman_1" xmlns="http://www.w3.org/2000/svg" xmlns:xlink="http://www.w3.org/1999/xlink" x="0px" y="0px"
	 viewBox="0 0 841.9 595.3" style="enable-background:new 0 0 841.9 595.3;" xml:space="preserve">
<style type="text/css">
	.st0{fill:url(#SVGID_1_);}
</style>
<g>
	<g>
		
			<linearGradient id="SVGID_1_" gradientUnits="userSpaceOnUse" x1="5.2935" y1="595.3044" x2="5.2935" y2="591.9684" gradientTransform="matrix(92 0 0 -81.2664 -66.0551 48427.1992)">
			<stop  offset="0" style="stop-color:#0A7AFF"/>
			<stop  offset="1" style="stop-color:#59B9FF"/>
		</linearGradient>
		<path class="st0" d="M334,67.2c35.2,26.5,73,80.2,86.9,109.1v76.2c0-1.6-0.6,0.2-2,4.2c-7.3,21.4-35.6,104.8-100.3,38.1
			c-34.1-35.1-18.3-70.2,43.8-80.8c-35.5,6.1-75.4-4-86.4-43.2c-3.2-11.3-8.5-80.9-8.5-90.3C267.5,33.3,308.6,48,334,67.2z
			 M507.9,67.2c-35.2,26.5-73,80.2-86.9,109.1v76.2c0-1.6,0.6,0.2,2,4.2c7.3,21.4,35.6,104.8,100.3,38.1
			c34.1-35.1,18.3-70.2-43.8-80.8c35.5,6.1,75.4-4,86.4-43.2c3.2-11.3,8.5-80.9,8.5-90.3C574.4,33.3,533.3,48,507.9,67.2z"/>
	</g>
	<path d="M223.5,457.3c12.6,4.5,19.3,14.9,19.3,26.6c0,19.8-13.2,31.8-38.6,31.8h-51.8V404.8h50.1c24.1,0,35.8,12.3,35.8,28.6
		C238.3,444.4,233.4,452.3,223.5,457.3z M201,422.1h-27.6v29H201c10.7,0,16.5-5.6,16.5-14.9C217.5,427.6,211.6,422.1,201,422.1z
		 M173.4,498.3h29.7c11.8,0,18.2-5.5,18.2-15.3c0-10.3-6.1-15.4-18.2-15.4h-29.7C173.4,467.6,173.4,498.3,173.4,498.3z M272,515.7
		h-19.6V404.8H272V515.7z M337,480.4v-45h19.6v80.3h-19V504c-6.1,9-14.5,13.5-25.2,13.5c-17,0-28-10.3-28-29v-53.2H304v50
		c0,10.1,5,15.3,15.1,15.3C328.6,500.6,337,493.6,337,480.4z M445.9,476.9v4.7h-60.1c1.4,13.9,9,20.7,20.9,20.7
		c9,0,15.1-3.9,18.4-11.5h18.8c-4.2,16.3-18.2,26.8-37.4,26.8c-12,0-21.6-3.9-29-11.5c-7.3-7.6-11.1-17.7-11.1-30.5
		c0-12.6,3.6-22.7,10.9-30.5c7.3-7.6,16.8-11.5,28.8-11.5c12.1,0,21.8,4,29,12C442.4,453.4,445.9,464,445.9,476.9L445.9,476.9z
		 M406.1,448.7c-10.7,0-18.2,6.2-20.1,19.1h40.3C424.6,456.2,417.5,448.7,406.1,448.7L406.1,448.7z M489.4,517.9
		c-23.4,0-35.7-9.2-36.7-27.7h19.2c1.1,10,6.1,13.7,17.9,13.7c10.6,0,15.9-3.3,15.9-9.7c0-5.8-3.7-8.6-15.7-10.6l-9.2-1.6
		c-17.6-3-26.3-11.1-26.3-24.3c0-15.1,12-24.3,33.3-24.3c22.9,0,34.7,9,35.5,27.2h-18.5c-0.5-9.8-6.2-13.2-17-13.2
		c-9.3,0-14,3.1-14,9.3c0,5.6,4.1,8.1,13.4,9.8l10.1,1.6c19.5,3.6,27.9,10.7,27.9,24.4C525.1,508.8,512,517.9,489.4,517.9z
		 M611.2,515.7h-22.4l-23.4-37.4l-12.1,12.1v25.2H534V404.8h19.3v63.8l32.7-33.3h23.4l-30.4,30.4L611.2,515.7z M662.4,455.6
		l6.5-20.2h20.5l-31,86.9c-3.3,8.9-7.3,15.3-12.5,18.8c-5.1,3.6-12.5,5.3-22.1,5.3c-3.3,0-6.1-0.2-8.6-0.5v-15.4h7.5
		c8.9,0,13.2-5.5,13.2-12.9c0-3.7-1.3-9.2-3.7-16.2l-23-66h20.9l6.5,20.1c4.8,15.1,9,30,12.8,44.8
		C652.9,487.5,657.3,472.6,662.4,455.6L662.4,455.6z"/>
</g>
</svg>
